<?xml version="1.0" encoding="iso-8859-1"?>
<!-- Uploaded to: SVG Repo, www.svgrepo.com, Generator: SVG Repo Mixer Tools -->
<!DOCTYPE svg PUBLIC "-//W3C//DTD SVG 1.1//EN" "http://www.w3.org/Graphics/SVG/1.1/DTD/svg11.dtd">
<svg fill="#000000" height="800px" width="800px" version="1.1" id="Capa_1" xmlns="http://www.w3.org/2000/svg" xmlns:xlink="http://www.w3.org/1999/xlink" 
	 viewBox="0 0 482.92 482.92" xml:space="preserve">
<path id="XMLID_279_" d="M458.295,415.239c3.307-7.781,2.734-16.66-1.526-23.957c-4.26-7.296-11.724-12.153-20.117-13.099
	L231.028,355.03v-39.98c124.447,0,75.97,0,202.882,0c8.99,0,16.278-7.289,16.278-16.278c0-8.99-7.288-16.278-16.278-16.278h-28.598
	c-21.557-99.998-84.984-185.945-174.284-235.972V16.278C231.028,7.289,223.739,0,214.75,0c-8.99,0-16.278,7.289-16.278,16.278
	v34.679c-49.082,48.207-81.948,109.203-94.912,176.923L90.5,296.053c-0.812,4.228,0.31,8.608,3.052,11.931
	c2.75,3.322,6.836,5.246,11.144,5.246h93.775v38.136L52.26,334.905c-8.989-1.01-17.884,2.591-23.646,9.57
	c-5.755,6.986-7.599,16.405-4.896,25.037l26.219,83.669c5.545,17.695,21.94,29.738,40.483,29.738h311.078
	c17.028,0,32.406-10.181,39.056-25.857L458.295,415.239z M197.748,284.313h-75.565l9.769-50.997
	c9.912-51.76,32.452-99.291,65.796-139.24V284.313z"/>
</svg>